<svg width="1663" height="47" viewBox="0 0 1663 47" fill="none" xmlns="http://www.w3.org/2000/svg">
<line x1="0.5" x2="0.5" y2="23.5" stroke="#A8FED6"/>
<line x1="17.5" x2="17.5" y2="23.5" stroke="#A8FED6"/>
<line x1="8.5" x2="8.5" y2="23.5" stroke="#A8FED6"/>
<line x1="75.5" x2="75.5" y2="23.5" stroke="#A8FED6"/>
<line x1="92.5" x2="92.5" y2="23.5" stroke="#A8FED6"/>
<line x1="83.5" x2="83.5" y2="23.5" stroke="#A8FED6"/>
<line x1="50.5" x2="50.5" y2="23.5" stroke="#A8FED6"/>
<line x1="67.5" x2="67.5" y2="23.5" stroke="#A8FED6"/>
<line x1="58.5" x2="58.5" y2="23.5" stroke="#A8FED6"/>
<line x1="25.5" x2="25.5" y2="23.5" stroke="#A8FED6"/>
<line x1="42.5" x2="42.5" y2="23.5" stroke="#A8FED6"/>
<line x1="33.5" x2="33.5" y2="23.5" stroke="#A8FED6"/>
<line x1="302.5" x2="302.5" y2="23.5" stroke="#A8FED6"/>
<line x1="319.5" x2="319.5" y2="23.5" stroke="#A8FED6"/>
<line x1="310.5" x2="310.5" y2="23.5" stroke="#A8FED6"/>
<line x1="377.5" x2="377.5" y2="23.5" stroke="#A8FED6"/>
<line x1="394.5" x2="394.5" y2="23.5" stroke="#A8FED6"/>
<line x1="385.5" x2="385.5" y2="23.5" stroke="#A8FED6"/>
<line x1="352.5" x2="352.5" y2="23.5" stroke="#A8FED6"/>
<line x1="369.5" x2="369.5" y2="23.5" stroke="#A8FED6"/>
<line x1="360.5" x2="360.5" y2="23.5" stroke="#A8FED6"/>
<line x1="327.5" x2="327.5" y2="23.5" stroke="#A8FED6"/>
<line x1="344.5" x2="344.5" y2="23.5" stroke="#A8FED6"/>
<line x1="335.5" x2="335.5" y2="23.5" stroke="#A8FED6"/>
<line x1="201.5" x2="201.5" y2="23.5" stroke="#A8FED6"/>
<line x1="218.5" x2="218.5" y2="23.5" stroke="#A8FED6"/>
<line x1="209.5" x2="209.5" y2="23.5" stroke="#A8FED6"/>
<line x1="276.5" x2="276.5" y2="23.5" stroke="#A8FED6"/>
<line x1="293.5" x2="293.5" y2="23.5" stroke="#A8FED6"/>
<line x1="284.5" x2="284.5" y2="23.5" stroke="#A8FED6"/>
<line x1="251.5" x2="251.5" y2="23.5" stroke="#A8FED6"/>
<line x1="268.5" x2="268.5" y2="23.5" stroke="#A8FED6"/>
<line x1="259.5" x2="259.5" y2="23.5" stroke="#A8FED6"/>
<line x1="226.5" x2="226.5" y2="23.5" stroke="#A8FED6"/>
<line x1="243.5" x2="243.5" y2="23.5" stroke="#A8FED6"/>
<line x1="234.5" x2="234.5" y2="23.5" stroke="#A8FED6"/>
<line x1="100.5" x2="100.5" y2="23.5" stroke="#A8FED6"/>
<line x1="117.5" x2="117.5" y2="23.5" stroke="#A8FED6"/>
<line x1="108.5" x2="108.5" y2="23.5" stroke="#A8FED6"/>
<line x1="175.5" x2="175.5" y2="23.5" stroke="#A8FED6"/>
<line x1="192.5" x2="192.5" y2="23.5" stroke="#A8FED6"/>
<line x1="183.5" x2="183.5" y2="23.5" stroke="#A8FED6"/>
<line x1="150.5" x2="150.5" y2="23.5" stroke="#A8FED6"/>
<line x1="167.5" x2="167.5" y2="23.5" stroke="#A8FED6"/>
<line x1="158.5" x2="158.5" y2="23.5" stroke="#A8FED6"/>
<line x1="125.5" x2="125.5" y2="23.5" stroke="#A8FED6"/>
<line x1="142.5" x2="142.5" y2="23.5" stroke="#A8FED6"/>
<line x1="133.5" x2="133.5" y2="23.5" stroke="#A8FED6"/>
<line x1="804.5" x2="804.5" y2="23.5" stroke="#A8FED6"/>
<line x1="821.5" x2="821.5" y2="23.5" stroke="#A8FED6"/>
<line x1="812.5" x2="812.5" y2="23.5" stroke="#A8FED6"/>
<line x1="879.5" x2="879.5" y2="23.5" stroke="#A8FED6"/>
<line x1="896.5" x2="896.5" y2="23.5" stroke="#A8FED6"/>
<line x1="887.5" x2="887.5" y2="23.5" stroke="#A8FED6"/>
<line x1="854.5" x2="854.5" y2="23.5" stroke="#A8FED6"/>
<line x1="871.5" x2="871.5" y2="23.5" stroke="#A8FED6"/>
<line x1="862.5" x2="862.5" y2="23.5" stroke="#A8FED6"/>
<line x1="829.5" x2="829.5" y2="23.5" stroke="#A8FED6"/>
<line x1="846.5" x2="846.5" y2="23.5" stroke="#A8FED6"/>
<line x1="837.5" x2="837.5" y2="23.5" stroke="#A8FED6"/>
<line x1="1106.5" x2="1106.5" y2="23.5" stroke="#A8FED6"/>
<line x1="1123.5" x2="1123.5" y2="23.5" stroke="#A8FED6"/>
<line x1="1114.5" x2="1114.5" y2="23.5" stroke="#A8FED6"/>
<line x1="1181.5" x2="1181.5" y2="23.5" stroke="#A8FED6"/>
<line x1="1198.5" x2="1198.5" y2="23.5" stroke="#A8FED6"/>
<line x1="1189.5" x2="1189.5" y2="23.5" stroke="#A8FED6"/>
<line x1="1156.5" x2="1156.5" y2="23.5" stroke="#A8FED6"/>
<line x1="1173.5" x2="1173.5" y2="23.5" stroke="#A8FED6"/>
<line x1="1164.5" x2="1164.5" y2="23.5" stroke="#A8FED6"/>
<line x1="1131.5" x2="1131.5" y2="23.5" stroke="#A8FED6"/>
<line x1="1148.5" x2="1148.5" y2="23.5" stroke="#A8FED6"/>
<line x1="1139.5" x2="1139.5" y2="23.5" stroke="#A8FED6"/>
<line x1="1005.5" x2="1005.5" y2="23.5" stroke="#A8FED6"/>
<line x1="1022.5" x2="1022.5" y2="23.5" stroke="#A8FED6"/>
<line x1="1013.5" x2="1013.5" y2="23.5" stroke="#A8FED6"/>
<line x1="1080.5" x2="1080.5" y2="23.5" stroke="#A8FED6"/>
<line x1="1097.5" x2="1097.5" y2="23.5" stroke="#A8FED6"/>
<line x1="1088.5" x2="1088.5" y2="23.5" stroke="#A8FED6"/>
<line x1="1055.5" x2="1055.5" y2="23.5" stroke="#A8FED6"/>
<line x1="1072.5" x2="1072.5" y2="23.5" stroke="#A8FED6"/>
<line x1="1063.5" x2="1063.5" y2="23.5" stroke="#A8FED6"/>
<line x1="1030.5" x2="1030.5" y2="23.5" stroke="#A8FED6"/>
<line x1="1047.5" x2="1047.5" y2="23.5" stroke="#A8FED6"/>
<line x1="1038.5" x2="1038.5" y2="23.5" stroke="#A8FED6"/>
<line x1="904.5" x2="904.5" y2="23.5" stroke="#A8FED6"/>
<line x1="921.5" x2="921.5" y2="23.5" stroke="#A8FED6"/>
<line x1="912.5" x2="912.5" y2="23.5" stroke="#A8FED6"/>
<line x1="979.5" x2="979.5" y2="23.5" stroke="#A8FED6"/>
<line x1="996.5" x2="996.5" y2="23.5" stroke="#A8FED6"/>
<line x1="987.5" x2="987.5" y2="23.5" stroke="#A8FED6"/>
<line x1="954.5" x2="954.5" y2="23.5" stroke="#A8FED6"/>
<line x1="971.5" x2="971.5" y2="23.5" stroke="#A8FED6"/>
<line x1="962.5" x2="962.5" y2="23.5" stroke="#A8FED6"/>
<line x1="929.5" x2="929.5" y2="23.5" stroke="#A8FED6"/>
<line x1="946.5" x2="946.5" y2="23.5" stroke="#A8FED6"/>
<line x1="937.5" x2="937.5" y2="23.5" stroke="#A8FED6"/>
<line x1="1207.5" x2="1207.5" y2="23.5" stroke="#A8FED6"/>
<line x1="1224.5" x2="1224.5" y2="23.5" stroke="#A8FED6"/>
<line x1="1215.5" x2="1215.5" y2="23.5" stroke="#A8FED6"/>
<line x1="1282.5" x2="1282.5" y2="23.5" stroke="#A8FED6"/>
<line x1="1299.5" x2="1299.5" y2="23.5" stroke="#A8FED6"/>
<line x1="1290.5" x2="1290.5" y2="23.5" stroke="#A8FED6"/>
<line x1="1257.5" x2="1257.5" y2="23.5" stroke="#A8FED6"/>
<line x1="1274.5" x2="1274.5" y2="23.5" stroke="#A8FED6"/>
<line x1="1265.5" x2="1265.5" y2="23.5" stroke="#A8FED6"/>
<line x1="1232.5" x2="1232.5" y2="23.5" stroke="#A8FED6"/>
<line x1="1249.5" x2="1249.5" y2="23.5" stroke="#A8FED6"/>
<line x1="1240.5" x2="1240.5" y2="23.5" stroke="#A8FED6"/>
<line x1="1509.5" x2="1509.5" y2="23.5" stroke="#A8FED6"/>
<line x1="1526.5" x2="1526.5" y2="23.5" stroke="#A8FED6"/>
<line x1="1517.5" x2="1517.5" y2="23.5" stroke="#A8FED6"/>
<line x1="1584.5" x2="1584.5" y2="23.5" stroke="#A8FED6"/>
<line x1="1601.5" x2="1601.5" y2="23.5" stroke="#A8FED6"/>
<line x1="1662.5" x2="1662.5" y2="23.5" stroke="#A8FED6"/>
<line x1="1654.5" x2="1654.5" y2="23.5" stroke="#A8FED6"/>
<line x1="1646.5" x2="1646.5" y2="23.5" stroke="#A8FED6"/>
<line x1="1637.5" x2="1637.5" y2="23.5" stroke="#A8FED6"/>
<line x1="1628.5" x2="1628.5" y2="23.5" stroke="#A8FED6"/>
<line x1="1619.5" x2="1619.5" y2="23.5" stroke="#A8FED6"/>
<line x1="1610.5" x2="1610.5" y2="23.5" stroke="#A8FED6"/>
<line x1="1592.5" x2="1592.5" y2="23.5" stroke="#A8FED6"/>
<line x1="1559.5" x2="1559.5" y2="23.5" stroke="#A8FED6"/>
<line x1="1576.5" x2="1576.5" y2="23.5" stroke="#A8FED6"/>
<line x1="1567.5" x2="1567.5" y2="23.5" stroke="#A8FED6"/>
<line x1="1534.5" x2="1534.5" y2="23.5" stroke="#A8FED6"/>
<line x1="1551.5" x2="1551.5" y2="23.5" stroke="#A8FED6"/>
<line x1="1542.5" x2="1542.5" y2="23.5" stroke="#A8FED6"/>
<line x1="1408.5" x2="1408.5" y2="23.5" stroke="#A8FED6"/>
<line x1="1425.5" x2="1425.5" y2="23.5" stroke="#A8FED6"/>
<line x1="1416.5" x2="1416.5" y2="23.5" stroke="#A8FED6"/>
<line x1="1483.5" x2="1483.5" y2="23.5" stroke="#A8FED6"/>
<line x1="1500.5" x2="1500.5" y2="23.5" stroke="#A8FED6"/>
<line x1="1491.5" x2="1491.5" y2="23.5" stroke="#A8FED6"/>
<line x1="1458.5" x2="1458.5" y2="23.5" stroke="#A8FED6"/>
<line x1="1475.5" x2="1475.5" y2="23.5" stroke="#A8FED6"/>
<line x1="1466.5" x2="1466.5" y2="23.5" stroke="#A8FED6"/>
<line x1="1433.5" x2="1433.5" y2="23.5" stroke="#A8FED6"/>
<line x1="1450.5" x2="1450.5" y2="23.5" stroke="#A8FED6"/>
<line x1="1441.5" x2="1441.5" y2="23.5" stroke="#A8FED6"/>
<line x1="1307.5" x2="1307.5" y2="23.5" stroke="#A8FED6"/>
<line x1="1324.5" x2="1324.5" y2="23.5" stroke="#A8FED6"/>
<line x1="1315.5" x2="1315.5" y2="23.5" stroke="#A8FED6"/>
<line x1="1382.5" x2="1382.5" y2="23.5" stroke="#A8FED6"/>
<line x1="1399.5" x2="1399.5" y2="23.5" stroke="#A8FED6"/>
<line x1="1390.5" x2="1390.5" y2="23.5" stroke="#A8FED6"/>
<line x1="1357.5" x2="1357.5" y2="23.5" stroke="#A8FED6"/>
<line x1="1374.5" x2="1374.5" y2="23.5" stroke="#A8FED6"/>
<line x1="1365.5" x2="1365.5" y2="23.5" stroke="#A8FED6"/>
<line x1="1332.5" x2="1332.5" y2="23.5" stroke="#A8FED6"/>
<line x1="1349.5" x2="1349.5" y2="23.5" stroke="#A8FED6"/>
<line x1="1340.5" x2="1340.5" y2="23.5" stroke="#A8FED6"/>
<line x1="402.5" x2="402.5" y2="23.5" stroke="#A8FED6"/>
<line x1="419.5" x2="419.5" y2="23.5" stroke="#A8FED6"/>
<line x1="410.5" x2="410.5" y2="23.5" stroke="#A8FED6"/>
<line x1="477.5" x2="477.5" y2="23.5" stroke="#A8FED6"/>
<line x1="494.5" x2="494.5" y2="23.5" stroke="#A8FED6"/>
<line x1="485.5" x2="485.5" y2="23.5" stroke="#A8FED6"/>
<line x1="452.5" x2="452.5" y2="23.5" stroke="#A8FED6"/>
<line x1="469.5" x2="469.5" y2="23.5" stroke="#A8FED6"/>
<line x1="460.5" x2="460.5" y2="23.5" stroke="#A8FED6"/>
<line x1="427.5" x2="427.5" y2="23.5" stroke="#A8FED6"/>
<line x1="444.5" x2="444.5" y2="23.5" stroke="#A8FED6"/>
<line x1="435.5" x2="435.5" y2="23.5" stroke="#A8FED6"/>
<line x1="704.5" x2="704.5" y2="23.5" stroke="#A8FED6"/>
<line x1="721.5" x2="721.5" y2="23.5" stroke="#A8FED6"/>
<line x1="712.5" x2="712.5" y2="23.5" stroke="#A8FED6"/>
<line x1="779.5" x2="779.5" y2="23.5" stroke="#A8FED6"/>
<line x1="796.5" x2="796.5" y2="23.5" stroke="#A8FED6"/>
<line x1="787.5" x2="787.5" y2="23.5" stroke="#A8FED6"/>
<line x1="754.5" x2="754.5" y2="23.5" stroke="#A8FED6"/>
<line x1="771.5" x2="771.5" y2="23.5" stroke="#A8FED6"/>
<line x1="762.5" x2="762.5" y2="23.5" stroke="#A8FED6"/>
<line x1="729.5" x2="729.5" y2="23.5" stroke="#A8FED6"/>
<line x1="746.5" x2="746.5" y2="23.5" stroke="#A8FED6"/>
<line x1="737.5" x2="737.5" y2="23.5" stroke="#A8FED6"/>
<line x1="603.5" x2="603.5" y2="23.5" stroke="#A8FED6"/>
<line x1="620.5" x2="620.5" y2="23.5" stroke="#A8FED6"/>
<line x1="611.5" x2="611.5" y2="23.5" stroke="#A8FED6"/>
<line x1="678.5" x2="678.5" y2="23.5" stroke="#A8FED6"/>
<line x1="695.5" x2="695.5" y2="23.5" stroke="#A8FED6"/>
<line x1="686.5" x2="686.5" y2="23.5" stroke="#A8FED6"/>
<line x1="653.5" x2="653.5" y2="23.5" stroke="#A8FED6"/>
<line x1="670.5" x2="670.5" y2="23.5" stroke="#A8FED6"/>
<line x1="661.5" x2="661.5" y2="23.5" stroke="#A8FED6"/>
<line x1="628.5" x2="628.5" y2="23.5" stroke="#A8FED6"/>
<line x1="645.5" x2="645.5" y2="23.5" stroke="#A8FED6"/>
<line x1="636.5" x2="636.5" y2="23.5" stroke="#A8FED6"/>
<line x1="502.5" x2="502.5" y2="23.5" stroke="#A8FED6"/>
<line x1="519.5" x2="519.5" y2="23.5" stroke="#A8FED6"/>
<line x1="510.5" x2="510.5" y2="23.5" stroke="#A8FED6"/>
<line x1="577.5" x2="577.5" y2="23.5" stroke="#A8FED6"/>
<line x1="594.5" x2="594.5" y2="23.5" stroke="#A8FED6"/>
<line x1="585.5" x2="585.5" y2="23.5" stroke="#A8FED6"/>
<line x1="552.5" x2="552.5" y2="23.5" stroke="#A8FED6"/>
<line x1="569.5" x2="569.5" y2="23.5" stroke="#A8FED6"/>
<line x1="560.5" x2="560.5" y2="23.5" stroke="#A8FED6"/>
<line x1="527.5" x2="527.5" y2="23.5" stroke="#A8FED6"/>
<line x1="544.5" x2="544.5" y2="23.5" stroke="#A8FED6"/>
<line x1="535.5" x2="535.5" y2="23.5" stroke="#A8FED6"/>
</svg>
