<svg width="1274" height="78" viewBox="0 0 1274 78" fill="none" xmlns="http://www.w3.org/2000/svg">
<path d="M6 0V32" stroke="black"/>
<path d="M29 0V32" stroke="black"/>
<path d="M52 0V32" stroke="black"/>
<path d="M75 0V32" stroke="black"/>
<path d="M98 0V32" stroke="black"/>
<path d="M121 0V32" stroke="black"/>
<path d="M144 0V32" stroke="black"/>
<path d="M167 0V32" stroke="black"/>
<path d="M190 0V32" stroke="black"/>
<path d="M213 0V32" stroke="black"/>
<path d="M236 0V32" stroke="black"/>
<path d="M259 0V32" stroke="black"/>
<path d="M282 0V32" stroke="black"/>
<path d="M305 0V32" stroke="black"/>
<path d="M328 0V32" stroke="black"/>
<path d="M351 0V32" stroke="black"/>
<path d="M1110 0V32" stroke="black"/>
<path d="M1133 0V32" stroke="black"/>
<path d="M1156 0V32" stroke="black"/>
<path d="M1179 0V32" stroke="black"/>
<path d="M1202 0V32" stroke="black"/>
<path d="M1225 0V32" stroke="black"/>
<path d="M1248 0V32" stroke="black"/>
<path d="M1271 0V32" stroke="black"/>
<path d="M742 0V32" stroke="black"/>
<path d="M765 0V32" stroke="black"/>
<path d="M788 0V32" stroke="black"/>
<path d="M811 0V32" stroke="black"/>
<path d="M834 0V32" stroke="black"/>
<path d="M857 0V32" stroke="black"/>
<path d="M880 0V32" stroke="black"/>
<path d="M903 0V32" stroke="black"/>
<path d="M926 0V32" stroke="black"/>
<path d="M949 0V32" stroke="black"/>
<path d="M972 0V32" stroke="black"/>
<path d="M995 0V32" stroke="black"/>
<path d="M1018 0V32" stroke="black"/>
<path d="M1041 0V32" stroke="black"/>
<path d="M1064 0V32" stroke="black"/>
<path d="M1087 0V32" stroke="black"/>
<path d="M374 0V32" stroke="black"/>
<path d="M397 0V32" stroke="black"/>
<path d="M420 0V32" stroke="black"/>
<path d="M443 0V32" stroke="black"/>
<path d="M466 0V32" stroke="black"/>
<path d="M489 0V32" stroke="black"/>
<path d="M512 0V32" stroke="black"/>
<path d="M535 0V32" stroke="black"/>
<path d="M558 0V32" stroke="black"/>
<path d="M581 0V32" stroke="black"/>
<path d="M604 0V32" stroke="black"/>
<path d="M627 0V32" stroke="black"/>
<path d="M650 0V32" stroke="black"/>
<path d="M673 0V32" stroke="black"/>
<path d="M696 0V32" stroke="black"/>
<path d="M719 0V32" stroke="black"/>
</svg>
