<svg width="380" height="232" viewBox="0 0 380 232" fill="none" xmlns="http://www.w3.org/2000/svg">
<line x1="379.5" y1="231" y2="231" stroke="white" stroke-opacity="0.5"/>
<line x1="379.5" y1="220.978" y2="220.978" stroke="white" stroke-opacity="0.5"/>
<line x1="379.5" y1="210.957" y2="210.957" stroke="white" stroke-opacity="0.5"/>
<line x1="379.5" y1="200.935" y2="200.935" stroke="white" stroke-opacity="0.5"/>
<line x1="379.5" y1="190.913" y2="190.913" stroke="white" stroke-opacity="0.5"/>
<line x1="379.5" y1="180.891" y2="180.891" stroke="white" stroke-opacity="0.5"/>
<line x1="379.5" y1="170.87" y2="170.87" stroke="white" stroke-opacity="0.5"/>
<line x1="379.5" y1="160.848" y2="160.848" stroke="white" stroke-opacity="0.5"/>
<line x1="379.5" y1="70.6522" y2="70.6522" stroke="white" stroke-opacity="0.5"/>
<line x1="379.5" y1="60.6304" y2="60.6304" stroke="white" stroke-opacity="0.5"/>
<line x1="379.5" y1="50.6087" y2="50.6087" stroke="white" stroke-opacity="0.5"/>
<line x1="379.5" y1="40.587" y2="40.587" stroke="white" stroke-opacity="0.5"/>
<line x1="379.5" y1="30.5652" y2="30.5652" stroke="white" stroke-opacity="0.5"/>
<line x1="379.5" y1="20.5435" y2="20.5435" stroke="white" stroke-opacity="0.5"/>
<line x1="379.5" y1="10.5217" y2="10.5217" stroke="white" stroke-opacity="0.5"/>
<line x1="379.5" y1="0.5" y2="0.5" stroke="white" stroke-opacity="0.5"/>
<line x1="379.5" y1="150.826" y2="150.826" stroke="white" stroke-opacity="0.5"/>
<line x1="379.5" y1="140.804" y2="140.804" stroke="white" stroke-opacity="0.5"/>
<line x1="379.5" y1="130.783" y2="130.783" stroke="white" stroke-opacity="0.5"/>
<line x1="379.5" y1="120.761" y2="120.761" stroke="white" stroke-opacity="0.5"/>
<line x1="379.5" y1="110.739" y2="110.739" stroke="white" stroke-opacity="0.5"/>
<line x1="379.5" y1="100.717" y2="100.717" stroke="white" stroke-opacity="0.5"/>
<line x1="379.5" y1="90.6957" y2="90.6957" stroke="white" stroke-opacity="0.5"/>
<line x1="379.5" y1="80.674" y2="80.674" stroke="white" stroke-opacity="0.5"/>
</svg>
